# Blender 5.1.2
# www.blender.org
mtllib Muro4.mtl
o Muro4
v 60.000000 -10.000000 -80.000000
v 60.000000 10.000000 -80.000000
v 60.000000 -10.000000 -60.000000
v 60.000000 10.000000 -60.000000
v -10.000000 -10.000000 -80.000000
v -10.000000 10.000000 -80.000000
v -10.000000 -10.000000 -60.000000
v -10.000000 10.000000 -60.000000
vn 1.0000 -0.0000 -0.0000
vn -0.0000 -0.0000 1.0000
vn -1.0000 -0.0000 -0.0000
vn -0.0000 -0.0000 -1.0000
vn -0.0000 -1.0000 -0.0000
vn -0.0000 1.0000 -0.0000
vt 0.558763 -0.093772
vt 0.441237 0.203114
vt 0.441237 -0.093772
vt 0.558763 0.203114
vt 0.394257 0.511729
vt 0.568551 0.502932
vt 0.394257 0.808615
vt 0.568551 0.799818
vt 0.441237 1.093772
vt 0.041321 0.809817
vt 0.041321 0.512931
vt 0.944012 0.501524
vt 0.558763 1.093772
vt 0.944012 0.798410
s 0
usemtl Material.015
f 2/1/1 3/2/1 1/3/1
f 4/4/2 7/5/2 3/2/2
f 8/6/3 5/7/3 7/5/3
f 6/8/4 1/9/4 5/7/4
f 7/5/5 1/10/5 3/11/5
f 4/12/6 6/8/6 8/6/6
f 2/1/1 4/4/1 3/2/1
f 4/4/2 8/6/2 7/5/2
f 8/6/3 6/8/3 5/7/3
f 6/8/4 2/13/4 1/9/4
f 7/5/5 5/7/5 1/10/5
f 4/12/6 2/14/6 6/8/6
