# Blender 5.1.2
# www.blender.org
mtllib Muro4.mtl
o Muro4
v 60.000000 -10.000000 -80.000000
v 60.000000 10.000000 -80.000000
v 60.000000 -10.000000 -60.000000
v 60.000000 10.000000 -60.000000
v -10.000000 -10.000000 -80.000000
v -10.000000 10.000000 -80.000000
v -10.000000 -10.000000 -60.000000
v -10.000000 10.000000 -60.000000
vn 1.0000 -0.0000 -0.0000
vn -0.0000 -0.0000 1.0000
vn -1.0000 -0.0000 -0.0000
vn -0.0000 -0.0000 -1.0000
vn -0.0000 -1.0000 -0.0000
vn -0.0000 1.0000 -0.0000
vt 0.441237 -0.093772
vt 0.558763 -0.093772
vt 0.558763 0.203114
vt 0.441237 0.203114
vt 0.568551 0.502932
vt 0.394257 0.511729
vt 0.568551 0.799818
vt 0.394257 0.808615
vt 0.558763 1.093772
vt 0.441237 1.093772
vt 0.041321 0.512931
vt 0.041321 0.809817
vt 0.944012 0.501524
vt 0.944012 0.798410
s 0
usemtl Material.015
f 1/1/1 2/2/1 4/3/1 3/4/1
f 3/4/2 4/3/2 8/5/2 7/6/2
f 7/6/3 8/5/3 6/7/3 5/8/3
f 5/8/4 6/7/4 2/9/4 1/10/4
f 3/11/5 7/6/5 5/8/5 1/12/5
f 8/5/6 4/13/6 2/14/6 6/7/6
