# Blender 5.1.2
# www.blender.org
mtllib Muro14.mtl
o Muro14
v 120.000000 -10.000000 100.000000
v 120.000000 10.000000 100.000000
v 120.000000 -10.000000 120.000000
v 120.000000 10.000000 120.000000
v -60.000000 -10.000000 100.000000
v -60.000000 10.000000 100.000000
v -60.000000 -10.000000 120.000000
v -60.000000 10.000000 120.000000
vn 1.0000 -0.0000 -0.0000
vn -0.0000 -0.0000 1.0000
vn -1.0000 -0.0000 -0.0000
vn -0.0000 -0.0000 -1.0000
vn -0.0000 -1.0000 -0.0000
vn -0.0000 1.0000 -0.0000
vt 0.461130 -0.005865
vt 0.531041 0.002932
vt 0.518248 0.250000
vt 0.481752 0.250000
vt 0.518248 0.500000
vt 0.481752 0.500000
vt 0.518799 0.750000
vt 0.481201 0.750000
vt 0.518799 1.000000
vt 0.481201 1.000000
vt 0.002719 0.500000
vt 0.002719 0.750000
vt 1.001196 0.497068
vt 1.001196 0.747068
s 0
usemtl Material.019
f 1/1/1 2/2/1 4/3/1 3/4/1
f 3/4/2 4/3/2 8/5/2 7/6/2
f 7/6/3 8/5/3 6/7/3 5/8/3
f 5/8/4 6/7/4 2/9/4 1/10/4
f 3/11/5 7/6/5 5/8/5 1/12/5
f 8/5/6 4/13/6 2/14/6 6/7/6
