# Blender 5.1.2
# www.blender.org
mtllib Muro5.mtl
o Muro5
v 80.000000 -10.000000 -100.000000
v 80.000000 10.000000 -100.000000
v 80.000000 -10.000000 50.000000
v 80.000000 10.000000 50.000000
v 60.000000 -10.000000 -100.000000
v 60.000000 10.000000 -100.000000
v 60.000000 -10.000000 50.000000
v 60.000000 10.000000 50.000000
vn 1.0000 -0.0000 -0.0000
vn -0.0000 -0.0000 1.0000
vn -1.0000 -0.0000 -0.0000
vn -0.0000 -0.0000 -1.0000
vn -0.0000 -1.0000 -0.0000
vn -0.0000 1.0000 -0.0000
vt 0.466510 0.002052
vt 0.533490 0.002052
vt 0.532609 0.254300
vt 0.467391 0.254300
vt 0.532609 0.496726
vt 0.467391 0.496726
vt 0.531636 0.755866
vt 0.468364 0.755866
vt 0.572038 0.991057
vt 0.427962 0.991057
vt 0.399530 0.500000
vt 0.399530 0.748974
vt 0.600471 0.500000
vt 0.600471 0.748974
s 0
usemtl Material.016
f 1/1/1 2/2/1 4/3/1 3/4/1
f 3/4/2 4/3/2 8/5/2 7/6/2
f 7/6/3 8/5/3 6/7/3 5/8/3
f 5/8/4 6/7/4 2/9/4 1/10/4
f 3/11/5 7/6/5 5/8/5 1/12/5
f 8/5/6 4/13/6 2/14/6 6/7/6
