# Blender 5.1.2
# www.blender.org
mtllib Muro1.mtl
o Muro1
v 31.563454 -10.000000 -120.000000
v 31.563454 10.000000 -120.000000
v 31.563454 -10.000000 -100.000000
v 31.563454 10.000000 -100.000000
v -148.436554 -10.000000 -120.000000
v -148.436554 10.000000 -120.000000
v -148.436554 -10.000000 -100.000000
v -148.436554 10.000000 -100.000000
vn 1.0000 -0.0000 -0.0000
vn -0.0000 -0.0000 1.0000
vn -1.0000 -0.0000 -0.0000
vn -0.0000 -0.0000 -1.0000
vn -0.0000 -1.0000 -0.0000
vn -0.0000 1.0000 -0.0000
vt 0.568755 -1.333826
vt 0.446905 -0.632440
vt 0.446905 -1.333826
vt 0.568755 -0.632440
vt 0.429641 0.231505
vt 0.576585 0.233158
vt 0.434574 0.408271
vt 0.582458 0.409656
vt 0.446905 1.471720
vt 0.078427 0.404577
vt 0.085826 0.216727
vt 0.959507 0.217088
vt 0.568755 1.471720
vt 0.961387 0.425080
s 0
usemtl Material.007
f 2/1/1 3/2/1 1/3/1
f 4/4/2 7/5/2 3/2/2
f 8/6/3 5/7/3 7/5/3
f 6/8/4 1/9/4 5/7/4
f 7/5/5 1/10/5 3/11/5
f 4/12/6 6/8/6 8/6/6
f 2/1/1 4/4/1 3/2/1
f 4/4/2 8/6/2 7/5/2
f 8/6/3 6/8/3 5/7/3
f 6/8/4 2/13/4 1/9/4
f 7/5/5 5/7/5 1/10/5
f 4/12/6 2/14/6 6/8/6
