# Blender 5.1.2
# www.blender.org
mtllib Muro2.mtl
o Muro2
v 120.000000 -10.000000 -98.000000
v 120.000000 10.000000 -98.000000
v 100.000000 -10.000000 -98.000000
v 100.000000 10.000000 -98.000000
v 120.000000 -10.000000 -148.000000
v 120.000000 10.000000 -148.000000
v 100.000000 -10.000000 -148.000000
v 100.000000 10.000000 -148.000000
vn -0.0000 -0.0000 1.0000
vn -1.0000 -0.0000 -0.0000
vn -0.0000 -0.0000 -1.0000
vn 1.0000 -0.0000 -0.0000
vn -0.0000 -1.0000 -0.0000
vn -0.0000 1.0000 -0.0000
vt 0.376021 0.004082
vt 0.623979 0.004082
vt 0.623979 0.252041
vt 0.376021 0.252041
vt 0.623979 0.500000
vt 0.376021 0.500000
vt 0.623979 0.747959
vt 0.376021 0.747959
vt 0.623979 0.995918
vt 0.376021 0.995918
vt 0.128062 0.500000
vt 0.128062 0.747959
vt 0.871938 0.500000
vt 0.871938 0.747959
s 0
usemtl Material.008
f 1/1/1 2/2/1 4/3/1 3/4/1
f 3/4/2 4/3/2 8/5/2 7/6/2
f 7/6/3 8/5/3 6/7/3 5/8/3
f 5/8/4 6/7/4 2/9/4 1/10/4
f 3/11/5 7/6/5 5/8/5 1/12/5
f 8/5/6 4/13/6 2/14/6 6/7/6
