# Blender 5.1.2
# www.blender.org
mtllib PuertaDer.mtl
o PuertaDer
v -7.094943 -8.000000 148.637909
v -7.094943 8.000000 148.637909
v -7.094943 -8.000000 149.637909
v -7.094943 8.000000 149.637909
v -1.094943 -8.000000 149.637909
v -1.094943 8.000000 149.637909
v -1.094943 -8.000000 148.637909
v -1.094943 8.000000 148.637909
vn -0.0000 -0.0000 1.0000
vn -1.0000 -0.0000 -0.0000
vn -0.0000 -1.0000 -0.0000
vn -0.0000 1.0000 -0.0000
vn -0.0000 -0.0000 -1.0000
vn 1.0000 -0.0000 -0.0000
vt 0.489568 0.095334
vt 0.492768 0.630934
vt 0.333945 0.630934
vt 0.330745 0.095334
vt 0.278865 0.378060
vt 0.237296 0.378060
vt 0.237296 0.245632
vt 0.278865 0.245632
vt 0.682763 0.365518
vt 0.651150 0.365518
vt 0.651150 0.272487
vt 0.682763 0.272487
vt 0.617689 0.777915
vt 0.570301 0.722339
vt 0.645352 0.657346
vt 0.692741 0.712922
vt 0.671797 0.097856
vt 0.671797 0.625432
vt 0.508819 0.623416
vt 0.508819 0.095840
vt 0.338147 0.248795
vt 0.338147 0.378097
vt 0.297560 0.378097
vt 0.297560 0.248795
s 0
usemtl Material.001
f 5/1/1 6/2/1 4/3/1 3/4/1
f 3/5/2 4/6/2 2/7/2 1/8/2
f 5/9/3 3/10/3 1/11/3 7/12/3
f 4/13/4 6/14/4 8/15/4 2/16/4
f 1/17/5 2/18/5 8/19/5 7/20/5
f 8/21/6 6/22/6 5/23/6 7/24/6
